<?xml version="1.0" encoding="UTF-8" standalone="no"?> <svg xmlns="http://www.w3.org/2000/svg" viewBox="0 0 64 64"><title>1</title><g id="Layer_83" data-name="Layer 83"><path d="M61.59,30.79C61.06,30.08,48.27,13.5,32,13.5S2.94,30.08,2.41,30.79a2,2,0,0,0,0,2.42C2.94,33.92,15.73,50.5,32,50.5S61.06,33.92,61.59,33.21A2,2,0,0,0,61.59,30.79ZM32,46.5C20.1,46.5,9.76,35.68,6.59,32,9.76,28.31,20.07,17.5,32,17.5S54.24,28.32,57.41,32C54.24,35.69,43.93,46.5,32,46.5Z"/><path d="M32,23.15A8.85,8.85,0,1,0,40.85,32,8.86,8.86,0,0,0,32,23.15Zm0,13.7A4.85,4.85,0,1,1,36.85,32,4.86,4.86,0,0,1,32,36.85Z"/></g></svg>