<?xml version="1.0" standalone="no"?>
<svg version="1.0"
  xmlns="http://www.w3.org/2000/svg" width="48" height="48" viewBox="0 0 96.000000 96.000000" preserveAspectRatio="xMidYMid meet" style='position: relative; top: -5px'>
  <g transform="translate(0.000000,96.000000) scale(0.100000,-0.100000)">
    <path d="M151 684 c-27 -22 -31 -32 -31 -75 0 -66 30 -99 90 -99 60 0 90 33 90 99 0 43 -4 53 -31 75 -17 15 -43 26 -59 26 -16 0 -42 -11 -59 -26z"/>
    <path d="M691 684 c-27 -22 -31 -32 -31 -75 0 -66 30 -99 90 -99 60 0 90 33 90 99 0 43 -4 53 -31 75 -17 15 -43 26 -59 26 -16 0 -42 -11 -59 -26z"/>
    <path d="M418 664 c-38 -20 -58 -63 -58 -125 0 -45 4 -55 34 -85 30 -30 40 -34 86 -34 46 0 56 4 86 34 30 30 34 40 34 85 0 29 -7 65 -15 81 -28 55 -109 76 -167 44z"/>
    <path d="M125 468 c-41 -22 -75 -62 -81 -95 -10 -53 6 -63 99 -63 l80 0 47 43 c25 23 55 47 65 53 18 10 18 13 6 28 -8 10 -27 24 -42 32 -33 17 -145 18 -174 2z"/>
    <path d="M654 461 c-48 -29 -48 -37 0 -65 24 -14 55 -39 69 -56 24 -28 30 -30 100 -30 87 0 103 11 93 63 -6 34 -42 75 -83 96 -36 18 -143 14 -179 -8z"/>
    <path d="M387 376 c-112 -41 -173 -146 -111 -195 25 -20 40 -21 213 -21 216 0 231 4 231 70 0 50 -45 104 -115 136 -58 27 -156 32 -218 10z"/>
  </g>
</svg>
