<svg xmlns="http://www.w3.org/2000/svg" viewBox="0 0 50 50" width="50" height="50"
  preserveAspectRatio="xMidYMid meet"
  style="width: 100%; height: 100%; transform: translate3d(0px, 0px, 0px);">
  <defs>
    <clipPath id="__lottie_element_2">
      <rect width="50" height="50" x="0" y="0"></rect>
    </clipPath>
  </defs>
  <g>
    <g transform="matrix(1,0,0,1,0,0)" opacity="1" style="display: block;">
      <g opacity="1" transform="matrix(1,0,0,1,11.5,11.5)">
        <path stroke-linecap="round" stroke-linejoin="miter" fill-opacity="0" stroke-miterlimit="10"
          stroke-opacity="1" stroke-width="2"
          d=" M6.5,-4.5 C6.5,-4.5 -4.5,-4.5 -4.5,-4.5 C-4.5,-4.5 -4.5,6.5 -4.5,6.5"></path>
      </g>
      <g opacity="1" transform="matrix(1,0,0,1,38.5,38.5)">
        <path stroke-linecap="round" stroke-linejoin="miter" fill-opacity="0" stroke-miterlimit="10"
          stroke-opacity="1" stroke-width="2"
          d=" M-6.5,4.5 C-6.5,4.5 4.5,4.5 4.5,4.5 C4.5,4.5 4.5,-6.5 4.5,-6.5"></path>
      </g>
      <g opacity="1" transform="matrix(1,0,0,1,38.5,11.5)">
        <path stroke-linecap="round" stroke-linejoin="miter" fill-opacity="0" stroke-miterlimit="10"
          stroke-opacity="1" stroke-width="2"
          d=" M4.5,6.5 C4.5,6.5 4.5,-4.5 4.5,-4.5 C4.5,-4.5 -6.5,-4.5 -6.5,-4.5"></path>
      </g>
      <g opacity="1" transform="matrix(1,0,0,1,11.5,38.5)">
        <path stroke-linecap="round" stroke-linejoin="miter" fill-opacity="0" stroke-miterlimit="10"
          stroke-opacity="1" stroke-width="2"
          d=" M-4.5,-6.5 C-4.5,-6.5 -4.5,4.5 -4.5,4.5 C-4.5,4.5 6.5,4.5 6.5,4.5"></path>
      </g>
    </g>
  </g>
</svg>