<?xml version="1.0" encoding="UTF-8" standalone="no"?>
<svg xmlns="http://www.w3.org/2000/svg"
	xmlns:xlink="http://www.w3.org/1999/xlink" version="1.1" width="38" height="38" viewBox="0 0 38 38" xml:space="preserve">
	<title>Login</title>
	<g transform="matrix(1 0 0 1 20.9344495637 18.999996667)" id="HefSJKeXaYpkFWBG94OYG">
		<path style="stroke: none; stroke-width: 1; stroke-dasharray: none; stroke-linecap: butt; stroke-dashoffset: 0; stroke-linejoin: miter; stroke-miterlimit: 4; fill-rule: nonzero; opacity: 1;" transform=" translate(-10.7322187501, -15.83333)" d="M 12.24008 21.45388 C 13.481380000000001 21.52624 14.716790000000001 21.681520000000003 15.938490000000002 21.918740000000003 C 18.58217 22.454030000000003 20.308100000000003 23.327400000000004 21.047780000000003 24.736060000000002 C 21.603320000000004 25.83546 21.603320000000004 27.14422 21.047780000000003 28.24362 C 20.308100000000003 29.65228 18.650660000000002 30.58199 15.911100000000003 31.06094 C 14.690350000000002 31.3071 13.454670000000004 31.467119999999998 12.212690000000002 31.53988 C 11.062070000000002 31.66666 9.911460000000002 31.66666 8.747140000000002 31.66666 L 6.651370000000002 31.66666 C 6.213040000000002 31.610310000000002 5.788410000000002 31.58214 5.3774700000000015 31.58214 C 4.135450000000001 31.51825 2.8994800000000014 31.3629 1.6790600000000016 31.117279999999997 C 1.0704600000000015 31.000539999999997 0.5104900000000014 30.862889999999997 1.5543122344752192e-15 30.702959999999997 C 4.991180000000002 30.42759 8.973630000000002 26.34782 9.093990000000002 21.317009999999996 C 10.143550000000001 21.323859999999996 11.19292 21.369489999999995 12.240080000000003 21.453879999999995 z M 8.80193 0 C 13.39394 0 17.116509999999998 3.82822 17.116509999999998 8.55056 C 17.116509999999998 13.27291 13.393949999999998 17.10112 8.801929999999999 17.10112 C 8.609089999999998 17.10112 8.417789999999998 17.09437 8.228229999999998 17.08108 C 6.915339999999999 14.211500000000001 4.234579999999998 12.096910000000001 1.0217499999999982 11.57309 C 0.6763699999999981 10.63336 0.4873499999999982 9.61466 0.4873499999999982 8.550550000000001 C 0.4873499999999982 3.8282000000000016 4.209909999999998 -0.000009999999999621423 8.801929999999997 -0.000009999999999621423 z" stroke-linecap="round" />
	</g>
	<g class='childSVG'>
		<g transform="matrix(1.3940969729 0 0 1.3940969729 10.4598751053 24.1790713349)" id="NKAffPre002TRYKh9E_sL">
			<path class='childPathSVG' style="stroke-dasharray: none; stroke-linecap: butt; stroke-dashoffset: 0; stroke-linejoin: miter; stroke-miterlimit: 4; fill-rule: nonzero; opacity: 1;" transform=" translate(0, 0)" d="M 0 -4.879 C 2.69321 -4.879 4.879 -2.6932099999999997 4.879 0 C 4.879 2.69321 2.6932099999999997 4.879 0 4.879 C -2.69321 4.879 -4.879 2.6932099999999997 -4.879 0 C -4.879 -2.69321 -2.6932099999999997 -4.879 0 -4.879 z" stroke-linecap="round" />
		</g>
		<g transform="matrix(0.4581921459 0 0 0.4585112658 12.2051818241 24.0209449287)" id="R2Zjri_LcZEIYVai7TZ_v">
			<g class='childPathSVG'>
				<g transform="matrix(1 0 0 1 -4 0)" id="gos7ftMO8EZLUQeN3PY67">
					<path style="stroke: rgb(255,255,255); stroke-width: 2; stroke-dasharray: none; stroke-linecap: round; stroke-dashoffset: 0; stroke-linejoin: round; stroke-miterlimit: 4; fill: rgb(255,255,255); fill-opacity: 0; fill-rule: nonzero; opacity: 1;" transform=" translate(-8, -1)" d="M 1 1 C 1 1 15 1 15 1" stroke-linecap="round" />
				</g>
				<g transform="matrix(1 0 0 1 1 0)" id="bUwsX6i_klnG4ehR09xIH">
					<path style="stroke: rgb(255,255,255); stroke-width: 2; stroke-dasharray: none; stroke-linecap: round; stroke-dashoffset: 0; stroke-linejoin: round; stroke-miterlimit: 4; fill:  rgb(255,255,255); fill-opacity: 0; fill-rule: nonzero; opacity: 1;" transform=" translate(0, 0)" d="M -2 -4 C -2 -4 2 0 2 0 C 2 0 -2 4 -2 4" stroke-linecap="round" />
				</g>
			</g>
		</g>
	</g>
</svg>