<?xml version="1.0" standalone="no"?>
<svg version="1.0"
    xmlns="http://www.w3.org/2000/svg" width="42" height="42" viewBox="0 0 200.000000 200.000000" fill="rgb(30, 64, 175)">
    <g transform="translate(0.000000,200.000000) scale(0.100000,-0.100000)">
        <path d="M1170 1874 c-37 -95 -36 -280 1 -400 31 -102 51 -135 127 -211 37
-37 80 -84 95 -103 l26 -35 1 93 c0 68 -5 109 -20 153 -22 64 -21 80 4 60 34
-28 51 -111 51 -251 1 -126 7 -170 24 -170 4 0 6 -14 3 -30 l-4 -30 57 30 c31
16 66 30 76 30 30 0 22 -28 -10 -35 -40 -9 -121 -62 -121 -79 0 -29 50 -56
105 -56 41 0 61 6 98 31 66 43 154 142 168 188 21 72 -14 98 -119 88 -72 -7
-143 -38 -196 -87 l-41 -38 37 76 c75 155 87 267 39 367 -30 65 -74 113 -223
248 -53 48 -111 110 -129 137 -18 28 -34 50 -36 50 -2 0 -8 -12 -13 -26z"/>
        <path d="M610 1401 c-101 -32 -181 -82 -266 -166 -44 -44 -93 -102 -108 -129
l-28 -48 28 -24 c16 -13 63 -41 104 -61 91 -45 86 -41 73 -54 -12 -12 -84 17
-157 66 -29 19 -56 35 -59 35 -11 0 -37 -94 -48 -175 -14 -98 -2 -219 30 -311
26 -72 35 -82 58 -62 28 25 132 75 197 95 l59 18 -6 89 c-18 278 60 574 184
697 47 48 47 49 21 48 -15 0 -52 -8 -82 -18z"/>
        <path d="M957 1373 c29 -29 65 -83 87 -128 38 -79 86 -243 86 -297 0 -28 2
-30 28 -23 63 15 179 74 235 119 26 20 17 42 -54 132 -98 122 -259 223 -384
241 l-47 6 49 -50z"/>
        <path d="M744 1392 c-94 -45 -191 -241 -210 -430 l-7 -59 90 -12 c152 -19 429
-8 474 19 19 12 -2 134 -42 244 -75 207 -186 293 -305 238z"/>
        <path d="M1389 1004 c-38 -29 -179 -99 -221 -109 l-26 -7 0 -132 c0 -73 -6
-161 -12 -197 -32 -184 -98 -339 -178 -417 l-47 -45 46 6 c71 10 153 44 234
98 73 49 168 144 195 195 14 24 13 28 -10 47 -14 11 -58 35 -97 55 -70 33 -80
41 -67 55 9 8 111 -38 161 -73 l43 -29 14 27 c41 82 51 136 51 282 0 115 -4
156 -19 200 -10 30 -22 58 -25 63 -4 4 -23 -5 -42 -19z"/>
        <path d="M1020 863 c-75 -14 -372 -12 -463 3 l-38 6 3 -133 3 -134 40 3 c123
8 445 5 485 -5 24 -7 47 -10 50 -7 9 9 12 284 3 283 -4 -1 -42 -8 -83 -16z"/>
        <path d="M646 580 c-117 -15 -118 -15 -110 -58 3 -20 19 -77 35 -127 115 -362
346 -381 475 -38 23 60 56 194 50 200 -21 21 -340 37 -450 23z"/>
        <path d="M425 531 c-72 -26 -162 -71 -180 -91 -13 -14 -11 -21 19 -66 48 -71
155 -166 234 -207 71 -37 160 -67 200 -67 23 0 22 2 -17 37 -73 67 -139 205
-172 361 -6 28 -16 52 -22 52 -7 -1 -34 -9 -62 -19z"/>
    </g>
</svg>
