<svg xmlns="http://www.w3.org/2000/svg" xmlns:xlink="http://www.w3.org/1999/xlink" version="1.1"
  id="Layer_1" x="0px" y="0px" width="96" height="96" viewBox="0 0 750 750" style="enable-background:new 0 0 750 750;"
  xml:space="preserve">
  <g>
      <path class="st0" d="M433.5,454.28c1.38,1.45,2.77,2.9,4.15,4.35c0.28,0.29,0.45,0.63,0.43,1.06c-0.19,5.06,0.06,10.29-5.53,13.07   c-0.97,0.48-0.64,0.95,0.11,1.32c4.64,2.27,5.9,6.29,5.86,11.07c-0.06,9.76-0.08,19.51-0.02,29.27c0.03,4.51-1.79,7.75-5.8,9.87   c-4.08,2.16-8.46,3.11-13,3.39c-3.4,0.21-6.8,0.27-10.21,0.28c-24.88,0.04-49.77,0.06-74.65,0.04c-5.05,0-10.08-0.39-14.87-2.2   c-1.34-0.51-2.67-1.08-3.94-1.74c-3.47-1.84-5.29-4.6-5.24-8.7c0.13-10.08,0.07-20.17,0.1-30.25c0-1.04,0.14-2.09,0.21-3.13   c0.23-3.49,1.88-6.07,4.98-7.69c1.12-0.58,1.39-1.04,0.09-1.77c-0.96-0.54-1.86-1.23-2.7-1.95c-1.79-1.51-2.57-3.45-2.79-5.82   c-0.34-3.7,0.35-6.79,3.58-9.03c0.88-0.61,1.5-1.58,2.24-2.39c0.19,0.08,0.38,0.16,0.56,0.24c0,2.91,0.15,5.83-0.04,8.72   c-0.2,2.96,1.11,4.6,3.73,5.71c4.18,1.76,8.5,2.47,13.01,2.47c19.38-0.02,38.77,0.01,58.15,0.02c2.68,0,2.68,0,2.69,2.65   c0,0.26-0.03,0.53,0.01,0.79c0.25,1.73-0.33,2.36-2.22,2.35c-13.42-0.06-26.85-0.04-40.27,0.04c-7.85,0.04-15.71-0.25-23.56,0.31   c-3.24,0.23-6.26,1.32-9.12,2.83c-1.65,0.87-2.45,2.23-2.44,4.14c0.02,10.35,0.02,20.69,0,31.04c-0.01,2.15,0.96,3.56,2.85,4.51   c4.38,2.2,9.07,2.95,13.89,2.95c26.85,0.03,53.7,0.04,80.54-0.01c5.1-0.01,10.19-0.26,14.98-2.47c2.69-1.24,3.93-2.84,3.87-6   c-0.21-9.95-0.12-19.91-0.04-29.86c0.01-1.94-0.65-3.14-2.34-4.11c-4.04-2.32-8.44-3.17-12.98-3.32c-4.64-0.15-9.3-0.11-13.95-0.06   c-1.57,0.02-2.23-0.38-2.16-2.1c0.14-3.48-0.75-3.81,3.76-3.67c5.69,0.17,11.38,0.25,17.04-0.52c2.61-0.36,5.08-1.2,7.46-2.34   c2.18-1.04,3.25-2.71,3.19-5.15c-0.06-2.62-0.01-5.23-0.01-7.85C433.23,454.5,433.36,454.39,433.5,454.28z"></path>
      <g>
          <path class="st0" d="M376.43,177.85c-110.05-1.22-199.42,89.7-199.18,194.55c-3.15,109.88,90.33,201.7,197.14,199.73    c108.42,1.69,196.12-90.18,197.45-191.01C573.39,264.08,481.21,179.02,376.43,177.85z M373.56,564.66    c-102.39,1.19-191.48-86.12-188.8-192.71c1.3-51.62,20.12-95.96,57.09-132.18c37.2-36.45,82.34-54.51,134.17-54.12    c52.25,0.39,97.3,19.63,133.99,57.01c36.03,36.72,53.52,81.29,54.04,132.6C566.02,477.98,477.59,566.82,373.56,564.66z"></path>
          <path class="st0" d="M497.05,260.66c-0.09,2.43-1.2,4.32-2.9,6.02c-18.68,18.64-37.34,37.31-56,55.97    c-17.09,17.09-34.16,34.19-51.29,51.23c-1.38,1.37-1.47,2.05-0.03,3.48c35.75,35.66,71.44,71.37,107.15,107.06    c2.22,2.22,3.6,4.65,2.82,7.89c-1.31,5.42-7.53,7.62-11.94,4.21c-0.67-0.52-1.26-1.14-1.86-1.75    c-35.57-35.56-71.13-71.13-106.7-106.69c-2.04-2.04-1.52-2.05-3.54-0.03c-35.71,35.7-71.41,71.4-107.1,107.12    c-2.01,2.01-4.24,3.34-7.15,2.89c-3.03-0.47-5.16-2.19-6.12-5.14c-0.99-3.04-0.13-5.68,2.09-7.9c6.98-7,13.98-13.99,20.97-20.98    c28.9-28.9,57.78-57.8,86.72-86.65c1.37-1.36,1.49-2.04,0.04-3.48c-35.75-35.66-71.44-71.37-107.16-107.06    c-2.22-2.22-3.6-4.65-2.82-7.88c1.31-5.43,7.53-7.63,11.94-4.22c0.67,0.52,1.26,1.14,1.86,1.75    c35.57,35.56,71.13,71.13,106.71,106.69c2.03,2.03,1.52,2.04,3.54,0.02c35.71-35.7,71.42-71.4,107.1-107.12    c2.35-2.36,4.96-3.61,8.3-2.64C494.82,254.37,497.08,257.43,497.05,260.66z"></path>
          <path class="st0" d="M316.19,297.67c-1.76-1.84-3.5-3.68-5.28-5.5c-0.48-0.49-0.45-1.05-0.45-1.64c-0.01-2.09,0.02-4.19-0.05-6.28    c-0.13-3.71,1.4-6.58,4.29-8.79c4.71-3.59,10.25-5.09,15.9-6.33c5.19-1.14,10.5-1.4,15.77-1.86c1.4-0.12,1.99-0.41,1.91-1.91    c-0.12-2.29-0.08-4.58-0.01-6.87c0.03-1.19-0.35-1.99-1.44-2.51c-3.93-1.84-5.33-5.15-5.33-9.27c0-4.12-0.07-8.25-0.06-12.37    c0.01-6.88,2.88-9.96,9.76-10.36c2.61-0.15,5.24-0.11,7.85-0.11c11.65-0.01,23.31,0,34.96-0.01c2.63,0,5.23,0.14,7.69,1.22    c2.57,1.13,4.1,3.08,4.27,5.86c0.37,6.14,0.42,12.29,0.12,18.44c-0.13,2.62-1.27,4.69-3.45,6.05c-1.48,0.93-1.98,2.1-1.89,3.76    c0.11,1.96,0.13,3.93,0.06,5.89c-0.05,1.46,0.39,2.07,1.96,2.2c6.32,0.49,12.65,0.99,18.81,2.64c4.38,1.17,8.56,2.81,12.28,5.5    c2.94,2.13,4.35,4.96,4.36,8.55c0,0.72-0.12,1.46,0.02,2.16c1,4.98-1.37,8.33-5.35,10.93c-0.45-0.39-0.16-1.02-0.17-1.55    c-0.04-3.8-0.09-7.6-0.01-11.39c0.04-1.91-0.72-3.17-2.27-4.24c-5-3.45-10.74-4.69-16.57-5.61c-5.5-0.87-11.04-1.36-16.62-1.19    c-1.5,0.05-1.93-0.53-1.89-1.95c0.08-3.4,0-6.81,0.06-10.21c0.03-1.35-0.51-1.9-1.84-1.9c-12.37,0.01-24.75,0.01-37.12,0    c-1.44,0-1.94,0.69-1.91,2.09c0.07,3.14-0.07,6.29,0.08,9.42c0.09,1.93-0.42,2.59-2.48,2.58c-8.53-0.04-17,0.6-25.22,3.09    c-2.82,0.85-5.58,1.85-7.96,3.68c-1.46,1.12-2.21,2.48-2.19,4.35c0.05,4.37,0.01,8.75,0.01,13.12    C316.58,297.48,316.38,297.58,316.19,297.67z"></path>
          <path class="st0" d="M317.68,369.99c-6.94-2.5-7.17-7.79-7.01-13.54c0.21-7.45-0.03-14.92-0.07-22.38c0-0.63,0-1.26,0-2.5    c2.33,2.34,4.24,4.26,6.14,6.18c0.53,0.54,0.32,1.24,0.32,1.87c0,6.74,0.04,13.49-0.05,20.23c-0.03,2.22,0.9,3.45,2.84,4.4    c3.9,1.91,8.06,2.64,12.31,3.02c1.38,0.12,1.96,0.55,1.92,2.02c-0.12,4.39,0.45,3.73-3.67,4.04c-3.87,0.28-7.63,1.03-11.07,3.02    c-1.65,0.95-2.36,2.17-2.34,4.13c0.08,10.02-0.01,20.03,0.08,30.05c0.02,1.91-0.31,3.44-1.9,4.57c-1.02,0.73-1.8,2.7-2.84,2.2    c-1.06-0.51-0.72-2.48-0.73-3.84c-0.04-8.45-0.06-16.89-0.1-25.34c-0.02-3.01-0.07-6.02-0.13-9.03c-0.07-3.35,1.09-6,4.16-7.63    C316.11,371.16,316.61,370.74,317.68,369.99z"></path>
          <path class="st0" d="M431.64,370.23c0.81,0.51,1.41,0.9,2.01,1.26c2.86,1.73,4.47,4.32,4.52,7.6c0.16,11.12,0.55,22.25,0.07,33.37    c-0.01,0.2-0.01,0.39-0.04,0.59c-0.27,1.6-0.29,3.89-1.75,4.26c-1.07,0.27-2.2-1.93-3.35-2.97c-0.26-0.24-0.28-0.53-0.26-0.88    c0.49-11.05,0.04-22.11,0.24-33.17c0.03-1.78-0.79-2.95-2.26-3.82c-3.59-2.12-7.54-2.9-11.62-3.19c-3.25-0.24-4.32-1.77-3.35-4.89    c0.31-0.99,1.08-0.98,1.87-1.06c3.65-0.33,7.29-0.75,10.71-2.2c4.11-1.73,4.64-2.5,4.64-6.88c0-6.29,0.05-12.57-0.06-18.86    c-0.03-1.8,0.47-3.09,1.82-4.25c1.17-1.01,2.16-2.24,3.23-3.37c0.16,0.07,0.31,0.13,0.47,0.2c0,2.9,0.03,5.8-0.01,8.7    c-0.08,6.67,0.3,13.35-0.18,20.02c-0.3,4.08-2.14,7.06-5.8,8.9C432.3,369.71,432.11,369.89,431.64,370.23z"></path>
          <path class="st0" d="M334.71,315.23c6.72,0,13.44,0,20.16,0c12.5,0,25,0.02,37.49-0.02c1.61-0.01,2.35,0.35,2.27,2.19    c-0.17,4.01-0.08,4.01-4.09,4.02c-16.1,0.02-32.19,0.04-48.29,0.11c-1.42,0.01-2.46-0.33-3.43-1.4c-1.35-1.49-2.87-2.83-4.32-4.24    C334.57,315.67,334.64,315.45,334.71,315.23z"></path>
          <path class="st0" d="M345.5,424.23c1.7-1.61,3.41-3.2,5.1-4.82c0.55-0.53,1.19-0.46,1.84-0.46c14.67-0.03,29.34-0.05,44.01-0.1    c0.98,0,1.72,0.24,2.42,0.96c1.51,1.52,3.11,2.95,4.68,4.41c-0.09,0.13-0.18,0.26-0.28,0.39c-19.14,0-38.29,0-57.43,0    C345.73,424.48,345.61,424.35,345.5,424.23z"></path>
          <path class="st0" d="M414.8,315.86c-1.8,1.68-3.6,3.37-5.4,5.04c-1,0.93-2.25,0.46-3.37,0.48c-5.41,0.08-4.13,0.5-4.36-4.7    c-0.04-1,0.53-1.43,1.44-1.44c3.76-0.02,7.52-0.01,11.28-0.01C414.53,315.44,414.66,315.65,414.8,315.86z"></path>
      </g>
  </g>
</svg>