<svg xmlns="http://www.w3.org/2000/svg" 
  xmlns:xlink="http://www.w3.org/1999/xlink" version="1.1" id="Layer_1" x="0px" y="0px" width="96" height="96" viewBox="0 0 750 750" style="enable-background:new 0 0 750 750;" xml:space="preserve">
  <g>
    <path class="st0" d="M377.25,177.29c-54.7-0.32-101.94,18.64-140.84,56.88c-39.16,38.5-58.45,85.85-59.26,140.68   c0.74,54.49,19.71,101.51,58.16,139.9c38.2,38.13,84.85,57.64,138.98,57.96c109.8,0.64,198.06-88.67,198.57-196.6   C573.37,265.9,483.99,177.92,377.25,177.29z M508.5,510.41c-37.32,36.77-82.72,55.21-135.06,54.75   c-52.56-0.46-97.56-19.96-134.57-57.4c-33.98-34.37-54.22-82.23-54.06-144.29c0.73-41.62,19.34-87.47,57.44-124.6   c37.48-36.54,82.96-54.6,135.35-54.08c102.47,1.01,188.56,84.74,187.66,191.86C564.82,428.81,545.69,473.77,508.5,510.41z"></path>
    <path class="st0" d="M515.86,449.85c-1.24-17.07-9.36-30.15-23.91-39.19c-0.83-0.51-1.12-1.03-1.12-1.98   c0.03-18.78,0.02-37.57,0.02-56.35c0-18.66-0.01-37.33,0.01-55.99c0-1.45-0.29-2.76-1.23-3.91c-0.8-0.98-1.92-1.36-3.04-1.81   c-20.38-8.15-40.75-16.32-61.12-24.47c-21.01-8.4-42.02-16.79-63.03-25.17c-1.46-0.58-2.94-0.55-4.43,0.04   c-15.03,6.04-30.07,12.09-45.11,18.11c-21.05,8.42-42.1,16.82-63.15,25.23c-5.3,2.12-10.58,4.3-15.91,6.33   c-2.64,1-3.99,2.64-3.99,5.42c0,51.76,0,103.51,0,155.27c0,0.44-0.01,0.88,0,1.32c0.06,2.13,1.1,3.67,3,4.53   c5.09,2.32,10.21,4.55,15.31,6.84c17.26,7.74,34.52,15.47,51.77,23.23c18.89,8.5,37.79,16.99,56.64,25.57   c2.64,1.2,4.9,1.3,7.6,0.03c8.87-4.2,17.87-8.14,26.82-12.17c12.44-5.61,24.89-11.22,37.32-16.85c0.65-0.29,1-0.29,1.5,0.3   c1.26,1.49,2.58,2.94,4.05,4.25c13.49,11.95,29.02,15.92,46.41,11.27C502.33,493.79,517.51,472.47,515.86,449.85z M312.07,270.05   c15.77-6.36,31.54-12.7,47.3-19.07c0.74-0.3,1.34-0.23,2.04,0.05c21.34,8.56,42.68,17.11,64.03,25.65   c15.15,6.06,30.31,12.11,45.46,18.17c0.47,0.19,0.93,0.39,1.71,0.72c-5.33,2.14-10.33,4.15-15.32,6.16c-11,4.41-22.01,8.8-33,13.23   c-0.81,0.33-1.46,0.3-2.26-0.01c-15.26-6.11-30.54-12.18-45.81-18.28c-12.9-5.15-25.78-10.31-38.68-15.46   c-8.45-3.38-16.91-6.74-25.36-10.12c-0.32-0.13-0.64-0.28-0.97-0.42C311.35,270.17,311.77,270.17,312.07,270.05z M355.46,425.27   c0,24.82,0,49.64,0,74.45c0,1.8,0.01,1.78-1.59,1.07c-17.98-8.09-35.96-16.17-53.94-24.25c-14.23-6.4-28.46-12.81-42.69-19.22   c-5.53-2.49-11.06-4.99-16.6-7.45c-0.74-0.33-0.97-0.73-0.97-1.52c0.02-48.08,0.02-96.15,0-144.23c0-0.96,0.09-1.26,1.15-0.83   c24.81,9.96,49.63,19.88,74.44,29.82c12.93,5.18,25.85,10.38,38.8,15.52c1.06,0.42,1.42,0.92,1.42,2.07   C355.45,375.56,355.46,400.41,355.46,425.27z M361.61,340.05c-0.87,0.35-1.62,0.34-2.51-0.02c-21.15-8.48-42.3-16.93-63.46-25.37   c-15.42-6.15-30.84-12.3-46.26-18.45c-0.36-0.14-0.79-0.17-1.04-0.66c1.93-0.78,3.85-1.56,5.77-2.33   c13.15-5.27,26.3-10.52,39.44-15.8c3.98-1.6,3.95-1.63,7.92-0.04c19.59,7.85,39.19,15.68,58.78,23.52   c16.26,6.51,32.52,13.03,48.78,19.54c0.14,0.06,0.27,0.13,0.74,0.36c-2.38,0.96-4.47,1.81-6.58,2.65   C389.33,328.99,375.47,334.51,361.61,340.05z M422.24,475.77c-16.81,7.58-33.61,15.17-50.42,22.76c-1.82,0.82-3.66,1.59-5.45,2.48   c-1.06,0.53-1.18,0.15-1.17-0.82c0.03-3.96,0.01-7.91,0.01-11.87c0-21.02,0-42.04,0-63.07c0-24.82,0.01-49.64-0.03-74.46   c0-1.17,0.31-1.73,1.44-2.18c16.83-6.69,33.65-13.43,50.45-20.19c1.05-0.42,1.16-0.19,1.16,0.83c-0.03,13.79-0.02,27.58-0.02,41.37   c0,2.53,1.5,4.6,3.67,5.17c2.22,0.58,4.41-0.42,5.58-2.5c0.51-0.91,0.57-1.89,0.57-2.9c0-15.03,0-30.05-0.02-45.08   c0-0.88,0.23-1.32,1.1-1.66c14.46-5.76,28.9-11.56,43.34-17.35c2.52-1.01,5.04-2,7.55-3.05c0.85-0.36,1.17-0.18,1.05,0.74   c-0.02,0.16,0,0.32,0,0.48c0,33.29,0,66.58,0,99.88c0,1.54,0.01,1.51-1.45,1.15c-17.98-4.37-33.74-0.2-46.98,12.67   c-8.96,8.71-13.59,19.55-14.27,32.06c-0.45,8.23,1.18,16.03,4.68,23.46C423.75,475.25,423.93,475.01,422.24,475.77z M466.84,491.7   c-21.18-0.05-39.1-17.48-38.78-39.67c0.3-21.01,17.48-38.68,39.55-38.43c21.64,0.25,38.58,17.99,38.55,39.08   C506.15,474.29,488.6,491.76,466.84,491.7z"></path>
    <path class="st0" d="M489.01,468.03c-2.52-1.3-5.03-2.61-7.5-4c-0.78-0.43-1.19-0.35-1.8,0.3c-3.51,3.76-7.89,5.72-13.01,5.64   c-8.8-0.13-16.21-7.4-16.85-16.25c-0.07-0.99,0.25-1.24,1.18-1.2c1.4,0.07,2.81,0.02,4.57,0.02c-3.72-3.56-7.16-6.83-10.56-10.13   c-0.53-0.51-0.74-0.11-1.05,0.19c-1.7,1.63-3.44,3.22-5.09,4.9c-1.62,1.64-3.15,3.36-4.71,5.04c1.23,0,2.58,0.04,3.93-0.02   c0.79-0.03,1.07,0.16,1.13,1.03c0.57,8.22,4.04,15.06,10.21,20.45c5.95,5.2,13,7.14,20.82,6.18c7.82-0.96,14.22-4.48,19.06-10.77   C489.9,468.68,489.74,468.41,489.01,468.03z M487.75,469.73c-4.2,5.02-9.56,8.07-15.95,9.21c-16.06,2.85-27.89-8.04-31.02-21.43   c-0.38-1.63-0.61-3.3-0.53-4.99c0.04-0.81-0.23-1.06-1.03-0.99c-0.86,0.08-1.72,0.02-2.54,0.02c-0.13-0.45,0.11-0.58,0.27-0.73   c2.36-2.27,4.73-4.53,7.09-6.8c0.29-0.28,0.5-0.59,0.96-0.14c2.46,2.4,4.95,4.76,7.42,7.14c0.11,0.11,0.22,0.23,0.09,0.53   c-0.88,0-1.83,0.03-2.77-0.01c-0.7-0.03-0.98,0.17-0.98,0.93c0.06,10.25,8.82,19.5,19.69,18.45c4.57-0.44,8.43-2.27,11.67-5.47   c0.5-0.49,0.85-0.52,1.43-0.19c1.95,1.09,3.92,2.15,5.91,3.16C488.24,468.81,488.28,469.11,487.75,469.73z"></path>
    <path class="st0" d="M496.03,451.57c-0.86,0.04-1.12-0.23-1.23-1.12c-1.3-10.67-6.65-18.53-16.38-23.28   c-1.06-0.52-2.21-0.87-3.32-1.3c0.28,0.68,0.68,1.12,1.07,1.56c0.39,0.45,0.8,0.89,1.17,1.37c4.94,6.45,6.71,13.92,7.04,21.86   c0.03,0.66-0.16,0.93-0.87,0.91c-1.5-0.05-3.01-0.01-4.82-0.01c3.59,3.44,6.92,6.59,10.2,9.8c0.56,0.55,0.86,0.57,1.42,0.02   c2.74-2.68,5.53-5.31,8.28-7.99c0.57-0.56,1.34-0.94,1.74-1.83C498.82,451.56,497.42,451.51,496.03,451.57z M497.3,453.2   c-2.36,2.27-4.72,4.53-7.09,6.79c-0.27,0.26-0.49,0.68-0.97,0.22c-2.57-2.48-5.15-4.94-7.98-7.65c1.25,0,2.15-0.05,3.04,0.01   c0.87,0.06,1.21-0.19,1.18-1.12c-0.3-8.16-1.94-15.9-6.81-22.69c-0.02-0.03-0.01-0.08-0.05-0.34c3.49,1.73,6.39,3.98,8.78,6.86   c3.94,4.76,6.11,10.24,6.48,16.4c0.05,0.8,0.26,0.99,1.05,0.9c0.86-0.11,1.75-0.02,2.59-0.02   C497.71,452.91,497.45,453.05,497.3,453.2z"></path>
    <path class="st0" d="M477.46,431.74c-1.06-1.72-2.36-3.22-3.88-4.53c-2.7-2.32-5.85-2.58-9.24-2.18   c-7.6,0.89-13.75,4.35-18.68,10.13c-0.48,0.57-0.37,0.8,0.23,1.14c2.29,1.29,4.61,2.56,6.81,4c1.17,0.76,1.86,0.64,2.88-0.3   c5.79-5.36,14.44-6.04,20.9-1.77c1.84,1.22,3.32,2.82,4.8,4.63C481.16,439.99,479.3,434.73,477.46,431.74z M473.72,435.6   c-6.8-2.44-12.96-1.19-18.5,3.31c-0.83,0.68-1.41,0.88-2.37,0.25c-1.7-1.12-3.49-2.09-5.26-3.1c-0.61-0.35-0.83-0.59-0.24-1.22   c5.71-6.07,12.66-9.2,21.04-8.84c2.37,0.1,4.18,1.52,5.76,3.15c2.56,2.64,4.1,5.87,5.15,9.35c0.03,0.1-0.02,0.23-0.05,0.51   C477.52,437.55,475.76,436.33,473.72,435.6z"></path>
  </g>
</svg>