<?xml version="1.0" encoding="UTF-8" standalone="no" ?>
<svg xmlns="http://www.w3.org/2000/svg"
  xmlns:xlink="http://www.w3.org/1999/xlink" version="1.1" width="38" height="38" viewBox="0 0 38 38" xml:space="preserve">
  <title>Sign up</title>
  <g transform="matrix(1 0 0 1 18.9999982214 18.8999815175)" id="R_oiCIpZ2uUqBth-aTY3y">
    <path style="stroke: none; stroke-width: 1; stroke-dasharray: none; stroke-linecap: butt; stroke-dashoffset: 0; stroke-linejoin: miter; stroke-miterlimit: 4; fill-rule: nonzero; opacity: 1;" transform=" translate(-12.6666763138, -15.83333)" d="M 9.26008 21.45388 C 11.53956 21.27018 13.82952 21.27018 16.10899 21.45388 C 16.38149 21.46977 16.65371 21.48965 16.925559999999997 21.51351 C 18.197069999999997 23.84809 20.672839999999997 25.43349 23.51665 25.43349 C 24.07193 25.43349 24.61318 25.37304 25.134169999999997 25.25838 C 25.45901 26.23435 25.386509999999998 27.31385 24.91669 28.24362 C 24.17701 29.65228 22.519569999999998 30.58199 19.780009999999997 31.06094 C 18.55926 31.3071 17.323579999999996 31.467119999999998 16.081599999999998 31.53988 C 14.930979999999998 31.66666 13.780369999999998 31.66666 12.616049999999998 31.66666 L 10.520279999999998 31.66666 C 10.081949999999997 31.610310000000002 9.657319999999999 31.58214 9.246379999999998 31.58214 C 8.004359999999998 31.51825 6.768389999999998 31.3629 5.5479699999999985 31.117279999999997 C 2.9042899999999987 30.610159999999997 1.1783599999999987 29.708619999999996 0.43867999999999885 28.29996 C 0.15313999999999883 27.754279999999998 0.0025999999999988255 27.14471 0.00016999999999883775 26.52505 C -0.005610000000001163 25.90161 0.14037999999999884 25.28656 0.42497999999999886 24.73605 C 1.1509599999999989 23.327389999999998 2.8768899999999986 22.411759999999997 5.5479699999999985 21.91873 C 6.773769999999999 21.67812 8.013949999999998 21.52282 9.260079999999999 21.45387 z M 12.67084 0 C 17.26285 0 20.985419999999998 3.82822 20.985419999999998 8.55056 C 20.985419999999998 9.404300000000001 20.863749999999996 10.22882 20.637269999999997 11.006780000000001 C 18.41359 11.932970000000001 16.73032 13.899160000000002 16.195999999999998 16.29683 C 15.125739999999999 16.81281 13.931029999999998 17.10112 12.670839999999998 17.10112 C 8.078829999999998 17.10112 4.356259999999999 13.272900000000002 4.356259999999999 8.55056 C 4.356259999999999 3.8282100000000012 8.078819999999999 0 12.670839999999998 0 z" stroke-linecap="round" />
  </g>
  <g class="childSVG">
    <g transform="matrix(1.2627801838 0 0 1.2627801838 29.3641546172 20.8190723674)" id="mRheyYpTD-AP0M7SSpr4j">
      <path class="childPathSVG" style="stroke-dasharray: none; stroke-linecap: butt; stroke-dashoffset: 0; stroke-linejoin: miter; stroke-miterlimit: 4; fill: rgba(255,255,255); fill-rule: nonzero; opacity: 1;" transform=" translate(0, 0)" d="M 0 -3.95952 C 2.18565 -3.95952 3.95952 -2.18566 3.95952 0 C 3.95952 2.18565 2.18566 3.95952 0 3.95952 C -2.18565 3.95952 -3.95952 2.18566 -3.95952 0 C -3.95952 -2.18565 -2.18566 -3.95952 0 -3.95952 z" stroke-linecap="round" />
    </g>
    <g transform="matrix(1 0 0 1 29.3641546172 20.8190723674)" id="Nf1vgWCJPtao6lS0lLLOI">
      <g class="childPathSVG">
        <path style="stroke: rgb(24,97,85); stroke-width: 0; stroke-dasharray: none; stroke-linecap: butt; stroke-dashoffset: 0; stroke-linejoin: miter; stroke-miterlimit: 4; fill-rule: nonzero; opacity: 1;" transform=" translate(-5, -5)" d="M 5 0 C 7.76 0 10 2.24 10 5 C 10 7.76 7.76 10 5 10 C 2.24 10 0 7.76 0 5 C 0 2.24 2.24 0 5 0 z M 5.2749 0.08367 L 5.303509999999999 2.5 L 4.499999999999999 2.5 L 4.499999999999999 4.5 L 2.499999999999999 4.5 L 2.499999999999999 4.96474 L 0.03351999999999933 4.97906 C 0.03399999999999933 4.97906 0.8561499999999993 4.974279999999999 2.499999999999999 4.96474 L 2.499999999999999 5.5 L 4.499999999999999 5.5 L 4.499999999999999 7.5 L 5.499999999999999 7.5 L 5.499999999999999 5.5 L 7.499999999999999 5.5 L 7.499999999999999 4.5 L 5.499999999999999 4.5 L 5.499999999999999 2.5 L 5.303929999999999 2.5 C 5.2850399999999995 0.8891100000000001 5.27537 0.08367000000000013 5.2749 0.08367000000000013 z" stroke-linecap="round" />
      </g>
    </g>
  </g>
</svg>