<svg xmlns="http://www.w3.org/2000/svg" viewBox="0 0 50 50" width="50" height="50"
  preserveAspectRatio="xMidYMid meet"
  style="width: 100%; height: 100%; transform: translate3d(0px, 0px, 0px);">
  <defs>
    <clipPath id="__lottie_element_2">
      <rect width="50" height="50" x="0" y="0"></rect>
    </clipPath>
  </defs>
  <g>
    <g transform="matrix(1,0,0,1,0,0)" opacity="1" style="display: block;">
      <g opacity="1" transform="matrix(1,0,0,1,38.75,38.75)">
        <path stroke-linecap="butt" stroke-linejoin="miter" fill-opacity="0" stroke-miterlimit="10"
           stroke-opacity="1" stroke-width="4"
          d=" M-6.75,-6.75 C-6.75,-6.75 6.75,6.75 6.75,6.75"></path>
      </g>
      <g opacity="1" transform="matrix(1,0,0,1,21,20)">
        <path stroke-linecap="butt" stroke-linejoin="miter" fill-opacity="0" stroke-miterlimit="10"
           stroke-opacity="1" stroke-width="2"
          d=" M16,0 C16,8.836999893188477 8.836999893188477,16 0,16 C-8.836999893188477,16 -16,8.836999893188477 -16,0 C-16,-8.836999893188477 -8.836999893188477,-16 0,-16 C8.836999893188477,-16 16,-8.836999893188477 16,0z"></path>
      </g>
    </g>
    <g style="display: none;" transform="matrix(1,0,0,1,0,0)" opacity="1">
      <g opacity="1" transform="matrix(1,0,0,1,21,20)">
        <path fill-opacity="1"
          d=" M-8,1 C-8,1 8,1 8,1 C8,1 8,-1 8,-1 C8,-1 -8,-1 -8,-1 C-8,-1 -8,1 -8,1z"></path>
      </g>
      <g opacity="1" transform="matrix(1,0,0,1,21,20)">
        <path fill-opacity="1"
          d=" M-1,8 C-1,8 1,8 1,8 C1,8 1,-8 1,-8 C1,-8 -1,-8 -1,-8 C-1,-8 -1,8 -1,8z"></path>
      </g>
    </g>
  </g>
</svg>