<svg xmlns="http://www.w3.org/2000/svg" viewBox="-21 -12 153 118">
  <defs>
    <linearGradient id="Gradient" x1="0%" y1="0%" x2="100%" y2="0%">
      <stop offset="0%" style="stop-color:rgb(255,165,0);stop-opacity:1" />
      <stop offset="100%" style="stop-color:rgb(255,0,0);stop-opacity:1" />
    </linearGradient>
  </defs>
  <path d="M 22 10 L 132 10 L 114 91 L 29 92 M 28 101 L 18 -12 L 13 -8 L 24 106 M 28 101 L 110 101 L 108 106 L 24 106 M 18 -12 L -13 -12 L -15 -8 L 13 -8 M 40 -20 L 55 -20 L 55 5 L 40 5 M 65 -20 L 89 -20 L 89 5 L 65 5 M 100 -20 L 115 -20 L 115 5 L 100 5" fill="url(#Gradient)"/>
</svg>